<svg xmlns="http://www.w3.org/2000/svg" xmlns:xlink="http://www.w3.org/1999/xlink" version="1.1" id="Layer_1" x="0px" y="0px" viewBox="0 0 512 512" 
fill="#8A584B" style="enable-background:new 0 0 512 512;" xml:space="preserve">
<g>
	<path d="M480.25,256l28.31-48.88c7.06-12.29,2.85-27.96-9.36-35.02l-48.96-28.31V87.43c0-14.19-11.46-25.63-25.63-25.63h-56.37   l-28.26-48.93c-3.4-5.88-9.04-10.19-15.57-11.94c-6.56-1.8-13.54-0.85-19.45,2.55l-48.96,28.28L207.06,3.45   c-12.26-7.11-27.93-2.88-34.99,9.39L143.76,61.8H87.39c-14.17,0-25.63,11.44-25.63,25.63v56.34l-48.93,28.31   c-5.91,3.4-10.19,9.01-11.94,15.57c-1.73,6.61-0.8,13.57,2.58,19.47L31.75,256L3.47,304.91c-3.4,5.91-4.33,12.89-2.6,19.47   c1.75,6.58,6.03,12.19,11.91,15.57l48.96,28.31v56.34c0,14.19,11.46,25.63,25.63,25.63h56.39l28.31,48.96   c3.4,5.88,9.01,10.16,15.57,11.94l6.61,0.88c4.48,0,8.91-1.18,12.84-3.45l48.91-28.31l48.96,28.31c5.88,3.4,12.89,4.31,19.45,2.55   c6.56-1.73,12.19-6.01,15.57-11.91l28.26-48.96h56.37c14.17,0,25.63-11.44,25.63-25.63v-56.34l48.96-28.31   c12.24-7.11,16.44-22.78,9.36-35.04L480.25,256z M191.91,127.6c21.22,0,38.45,17.22,38.45,38.45s-17.22,38.45-38.45,38.45   s-38.45-17.22-38.45-38.45S170.69,127.6,191.91,127.6z M199.6,373.66l-41-30.74l153.78-205.04l41,30.74L199.6,373.66z    M320.06,383.9c-21.22,0-38.45-17.22-38.45-38.45c0-21.22,17.22-38.45,38.45-38.45s38.45,17.22,38.45,38.45   C358.51,366.68,341.29,383.9,320.06,383.9z"/>
</g>
</svg>